<svg xmlns="http://www.w3.org/2000/svg" width="820" height="66" viewBox="0 0 820 66">
<defs><linearGradient id="sky" x1="0" y1="0" x2="0" y2="1"><stop offset="0" stop-color="#0b0b20"/><stop offset="1" stop-color="#070718"/></linearGradient><radialGradient id="g" cx="50%" cy="50%" r="80%"><stop offset="0" stop-color="#f0a742" stop-opacity="0.10"/><stop offset="1" stop-color="#f0a742" stop-opacity="0"/></radialGradient><pattern id="scan" width="4" height="4" patternUnits="userSpaceOnUse"><rect width="4" height="1" fill="#000" opacity="0.14"/></pattern></defs>
<rect width="820" height="66" fill="url(#sky)"/>
<rect width="820" height="66" fill="url(#g)"/>
<rect x="168" y="53" width="1" height="1" fill="#e8ecff" opacity="0.45"><animate attributeName="opacity" values="0.45;0.8;0.45" dur="2.85s" begin="0.65s" repeatCount="indefinite"/></rect>
<rect x="811" y="60" width="1" height="1" fill="#e8ecff" opacity="0.4"><animate attributeName="opacity" values="0.4;0.75;0.4" dur="2.91s" begin="0.71s" repeatCount="indefinite"/></rect>
<rect x="3" y="1" width="1" height="1" fill="#e8ecff" opacity="0.43"><animate attributeName="opacity" values="0.43;0.78;0.43" dur="1.95s" begin="2.38s" repeatCount="indefinite"/></rect>
<rect x="237" y="29" width="1" height="1" fill="#e8ecff" opacity="0.37"><animate attributeName="opacity" values="0.37;0.72;0.37" dur="3.99s" begin="2.31s" repeatCount="indefinite"/></rect>
<rect x="416" y="56" width="2" height="2" fill="#f0a742" opacity="0.4"><animate attributeName="opacity" values="0.4;0.75;0.4" dur="2.05s" begin="2.86s" repeatCount="indefinite"/></rect>
<rect x="377" y="2" width="1" height="1" fill="#e8ecff" opacity="0.53"><animate attributeName="opacity" values="0.53;0.88;0.53" dur="2.07s" begin="2.78s" repeatCount="indefinite"/></rect>
<rect x="464" y="20" width="1" height="1" fill="#e8ecff" opacity="0.34"><animate attributeName="opacity" values="0.34;0.69;0.34" dur="2.87s" begin="0.56s" repeatCount="indefinite"/></rect>
<rect x="38" y="60" width="1" height="1" fill="#e8ecff" opacity="0.29"><animate attributeName="opacity" values="0.29;0.64;0.29" dur="3.52s" begin="0.63s" repeatCount="indefinite"/></rect>
<rect x="673" y="9" width="2" height="2" fill="#f0a742" opacity="0.53"><animate attributeName="opacity" values="0.53;0.88;0.53" dur="2.24s" begin="2.77s" repeatCount="indefinite"/></rect>
<rect x="548" y="52" width="1" height="1" fill="#e8ecff" opacity="0.58"><animate attributeName="opacity" values="0.58;0.93;0.58" dur="2.9s" begin="0.95s" repeatCount="indefinite"/></rect>
<rect x="496" y="49" width="1" height="1" fill="#e8ecff" opacity="0.53"><animate attributeName="opacity" values="0.53;0.88;0.53" dur="2.15s" begin="2.15s" repeatCount="indefinite"/></rect>
<rect x="507" y="0" width="1" height="1" fill="#e8ecff" opacity="0.42"><animate attributeName="opacity" values="0.42;0.77;0.42" dur="3.45s" begin="0.67s" repeatCount="indefinite"/></rect>
<rect x="251" y="30" width="24" height="12" fill="#f0a742"/>
<rect x="278" y="30" width="24" height="12" fill="#f0a742"/>
<rect x="306" y="30" width="24" height="12" fill="#f0a742"/>
<rect x="334" y="30" width="24" height="12" fill="#f0a742"/>
<rect x="361" y="30" width="24" height="12" fill="#f0a742"/>
<rect x="388" y="30" width="24" height="12" fill="#f0a742"/>
<rect x="416" y="30" width="24" height="12" fill="#23233f"/>
<rect x="444" y="30" width="24" height="12" fill="#23233f"/>
<text x="250" y="26" font-family="ui-monospace,SFMono-Regular,Menlo,Consolas,monospace" font-size="10" letter-spacing="2" fill="#8a8ac0" text-anchor="start">FUEL STATUS: COFFEE</text>
<text x="484" y="41" font-family="ui-monospace,SFMono-Regular,Menlo,Consolas,monospace" font-size="11" fill="#f0a742">78%</text>
<text x="522" y="41" font-family="ui-monospace,SFMono-Regular,Menlo,Consolas,monospace" font-size="11" fill="#8a8ac0">— safe for launch ☕</text>
<rect width="820" height="66" fill="url(#scan)"/>
<rect x="1" y="1" width="818" height="64" fill="none" stroke="#2a2a55" stroke-width="2"/>
</svg>